HIERARCHY
ROOT Hips
{
	OFFSET 0.000000 0.000000 0.000000
	CHANNELS 6 Xposition Yposition Zposition Xrotation Yrotation Zrotation
	JOINT LeftUpLeg_virtual
	{
		OFFSET 0.000000 0.000000 0.000000
		CHANNELS 3 Xrotation Yrotation Zrotation
		JOINT LeftUpLeg
		{
			OFFSET 10.205400 -3.823500 0.155100
			CHANNELS 3 Xrotation Yrotation Zrotation
			JOINT LeftLeg
			{
				OFFSET 0.708757 -12.982077 0.567790
				CHANNELS 3 Xrotation Yrotation Zrotation
				JOINT LeftFoot
				{
					OFFSET -0.708756 -10.717838 -2.184338
					CHANNELS 3 Xrotation Yrotation Zrotation
					JOINT LeftToeBase
					{
						OFFSET 0.108149 -7.191104 7.560241
						CHANNELS 3 Xrotation Yrotation Zrotation
						JOINT LeftToe_End
						{
							OFFSET 0.070230 0.081724 4.490308
							CHANNELS 3 Xrotation Yrotation Zrotation
							End Site
							{
								OFFSET 0 0 0
							}
						}
					}
				}
			}
		}
	}
	JOINT RightUpLeg_virtual
	{
		OFFSET 0.000000 0.000000 0.000000
		CHANNELS 3 Xrotation Yrotation Zrotation
		JOINT RightUpLeg
		{
			OFFSET -10.205400 -3.823500 0.005500
			CHANNELS 3 Xrotation Yrotation Zrotation
			JOINT RightLeg
			{
				OFFSET -0.708756 -12.982134 0.610632
				CHANNELS 3 Xrotation Yrotation Zrotation
				JOINT RightFoot
				{
					OFFSET 0.708754 -10.717769 -1.945823
					CHANNELS 3 Xrotation Yrotation Zrotation
					JOINT RightToeBase
					{
						OFFSET -0.108140 -7.191069 7.372968
						CHANNELS 3 Xrotation Yrotation Zrotation
						JOINT RightToe_End
						{
							OFFSET -0.070227 0.081735 4.479403
							CHANNELS 3 Xrotation Yrotation Zrotation
							End Site
							{
								OFFSET 0 0 0
							}
						}
					}
				}
			}
		}
	}
	JOINT Spine_virtual
	{
		OFFSET 0.000000 0.000000 0.000000
		CHANNELS 3 Xrotation Yrotation Zrotation
		JOINT Spine
		{
			OFFSET 0.000000 6.876099 0.125700
			CHANNELS 3 Xrotation Yrotation Zrotation
			JOINT Spine1
			{
				OFFSET 0.000000 5.730043 0.104720
				CHANNELS 3 Xrotation Yrotation Zrotation
				JOINT Spine1_split
				{
					OFFSET 0.000000 5.730043 0.104720
					CHANNELS 3 Xrotation Yrotation Zrotation
					JOINT Spine2
					{
						OFFSET 0.000000 5.730043 0.104720
						CHANNELS 3 Xrotation Yrotation Zrotation
						JOINT Neck_virtual
						{
							OFFSET 0.000000 0.000000 0.000000
							CHANNELS 3 Xrotation Yrotation Zrotation
							JOINT Neck
							{
								OFFSET 0.000000 10.314075 0.188496
								CHANNELS 3 Xrotation Yrotation Zrotation
								JOINT Head
								{
									OFFSET 0.000000 7.643700 -2.377400
									CHANNELS 3 Xrotation Yrotation Zrotation
									JOINT HeadTop_End
									{
										OFFSET 0.000000 43.788605 -13.619600
										CHANNELS 3 Xrotation Yrotation Zrotation
										End Site
										{
											OFFSET 0 0 0
										}
									}
								}
							}
						}
						JOINT LeftShoulder_virtual
						{
							OFFSET 0.000000 0.000000 0.000000
							CHANNELS 3 Xrotation Yrotation Zrotation
							JOINT LeftShoulder
							{
								OFFSET 2.196100 4.412489 0.087492
								CHANNELS 3 Xrotation Yrotation Zrotation
								JOINT LeftShoulder_split
								{
									OFFSET 2.196100 4.412489 0.087492
									CHANNELS 3 Xrotation Yrotation Zrotation
									JOINT LeftArm
									{
										OFFSET 8.771219 -2.981674 -0.026999
										CHANNELS 3 Xrotation Yrotation Zrotation
										JOINT LeftForeArm
										{
											OFFSET 8.512804 0.000000 -0.000000
											CHANNELS 3 Xrotation Yrotation Zrotation
											JOINT LeftHand
											{
												OFFSET 18.484802 0.000000 -0.000000
												CHANNELS 3 Xrotation Yrotation Zrotation
												End Site
												{
													OFFSET 0 0 0
												}
											}
										}
									}
								}
							}
						}
						JOINT RightShoulder_virtual
						{
							OFFSET 0.000000 0.000000 0.000000
							CHANNELS 3 Xrotation Yrotation Zrotation
							JOINT RightShoulder
							{
								OFFSET -2.196100 4.412496 0.070690
								CHANNELS 3 Xrotation Yrotation Zrotation
								JOINT RightShoulder_split
								{
									OFFSET -2.196100 4.412496 0.070690
									CHANNELS 3 Xrotation Yrotation Zrotation
									JOINT RightArm
									{
										OFFSET -8.771282 -2.981682 -0.094208
										CHANNELS 3 Xrotation Yrotation Zrotation
										JOINT RightForeArm
										{
											OFFSET -8.494598 0.000000 0.000000
											CHANNELS 3 Xrotation Yrotation Zrotation
											JOINT RightHand
											{
												OFFSET -18.483803 0.000000 0.000001
												CHANNELS 3 Xrotation Yrotation Zrotation
												End Site
												{
													OFFSET 0 0 0
												}
											}
										}
									}
								}
							}
						}
					}
				}
			}
		}
	}
}
MOTION
Frames: 9
Frame Time: 0.03333333
22.764929 30.876415 12.159159 0.000000 0.000000 0.000000 -17.472536 -58.117998 -16.077625 -13.542214 6.825869 5.297308 47.346052 -10.383906 2.171956 -32.524831 15.010918 7.019097 -3.144374 -0.223522 0.757148 0.000000 0.000000 0.000000 -14.278475 -55.331243 -13.896877 1.580244 16.865943 -19.176869 42.667567 -4.755353 -13.392784 16.550544 4.024032 31.622301 -28.185870 -2.468126 9.109505 0.000000 0.000000 0.000000 -15.448547 -56.384731 -14.179482 10.679560 7.906925 -0.526857 4.146913 13.885025 -1.475553 1.315970 -3.509873 0.765067 0.000000 0.000000 0.000000 2.959328 13.726665 -2.009361 -3.860778 -2.268647 -0.024223 3.277198 -39.740639 4.266531 0.000000 0.000000 0.000000 3.638300 13.319441 -2.039475 -5.265539 -18.654005 -26.571956 -3.175603 3.396213 -8.261623 -22.059448 23.238578 -41.719181 -2.742638 -37.717766 -2.470161 0.000000 0.000000 0.000000 1.071236 13.485503 -1.700044 18.841898 -23.237943 22.496936 1.133432 2.742541 0.624171 18.806619 -20.141388 41.536962 179.864494 68.818172 178.468021 0.000000 0.000000 0.000000 
22.626091 30.754879 13.188940 0.000000 0.000000 0.000000 -17.804925 -55.839778 -16.018083 -11.619468 6.988412 3.639511 47.525617 -10.757510 1.953143 -34.835956 12.778835 9.109421 -3.454117 -0.075436 0.873026 0.000000 0.000000 0.000000 -14.518925 -52.774744 -13.639614 -4.273980 19.006412 -15.405036 51.609647 -4.761660 -13.052337 10.455543 6.955409 28.973669 -19.666123 -0.624772 7.297283 0.000000 0.000000 0.000000 -15.821775 -54.087216 -13.685916 11.061180 5.573030 -0.840241 4.373007 13.604996 -1.471898 1.216365 -3.563059 0.650465 0.000000 0.000000 0.000000 3.107835 13.513497 -2.005375 -3.764774 -2.293134 0.265865 4.058773 -40.432469 4.742893 0.000000 0.000000 0.000000 3.747179 13.131123 -2.033397 -5.694945 -20.115322 -26.811954 -2.767223 3.431529 -8.217933 -22.764257 20.694616 -41.416488 -2.541727 -38.992252 -2.252951 0.000000 0.000000 0.000000 1.288095 13.308257 -1.756999 18.958051 -23.703309 22.969557 0.830747 2.609661 0.654662 20.035183 -22.835334 43.081428 -179.969665 68.720719 178.190497 0.000000 0.000000 0.000000 
22.481396 30.732557 14.218239 0.000000 0.000000 0.000000 -17.152762 -53.452442 -15.359997 -9.276385 7.280965 2.409372 46.364557 -11.475858 1.439185 -36.815871 9.798158 10.640828 -4.071144 0.013412 1.250000 0.000000 0.000000 0.000000 -14.335539 -50.089083 -13.164355 -10.897007 19.948102 -10.632246 59.196553 -4.305643 -11.654960 3.623114 9.794963 26.713589 -10.664515 1.471095 4.034448 0.000000 0.000000 0.000000 -15.218829 -51.722010 -12.718215 11.455995 3.229782 -0.908710 4.507510 13.219431 -1.449223 1.082972 -3.788075 0.674983 0.000000 0.000000 0.000000 3.179415 13.186777 -1.942283 -3.762513 -2.257509 0.688367 4.792358 -40.995625 5.241480 0.000000 0.000000 0.000000 3.762290 12.833008 -2.019219 -6.128873 -21.862809 -26.811542 -2.435982 3.588220 -8.211750 -23.400973 18.036810 -41.286465 -2.245687 -40.324467 -1.994329 0.000000 0.000000 0.000000 1.412131 13.009980 -1.800655 19.021904 -23.918419 23.521216 0.605558 2.557303 0.653246 20.185350 -24.659770 43.769092 -179.608034 69.465558 177.779470 0.000000 0.000000 0.000000 
22.338821 30.816349 15.272327 0.000000 0.000000 0.000000 -15.690000 -51.040101 -14.226896 -6.584698 7.459754 1.684557 44.146795 -12.482373 0.508918 -37.759246 6.475564 11.526762 -4.957145 0.034132 1.927277 0.000000 0.000000 0.000000 -13.751559 -47.606743 -12.559409 -17.151232 19.950716 -6.132378 63.515459 -3.312252 -9.735984 -1.140187 12.246874 25.346899 -4.599780 2.912619 0.371213 0.000000 0.000000 0.000000 -13.871126 -49.265239 -11.533847 11.822075 0.958947 -0.701578 4.542035 12.751382 -1.421145 0.949861 -4.132463 0.781355 0.000000 0.000000 0.000000 3.178555 12.767747 -1.850251 -3.822437 -2.206499 1.221274 5.497115 -41.501913 5.830795 0.000000 0.000000 0.000000 3.700973 12.449136 -2.020353 -6.539463 -23.818821 -26.564535 -2.175651 3.785286 -8.320036 -23.938324 15.320352 -41.325496 -1.956419 -42.211607 -1.772675 0.000000 0.000000 0.000000 1.461036 12.619855 -1.857402 19.048259 -23.961379 24.078109 0.598412 2.606791 0.652667 19.180590 -25.339700 43.463916 -179.125304 70.605974 177.316014 0.000000 0.000000 0.000000 
22.227840 30.993372 16.351147 0.000000 0.000000 0.000000 -13.798889 -48.661802 -12.970453 -3.831000 7.628497 1.507994 41.555926 -13.207593 -0.938235 -37.706763 3.009570 12.694939 -5.580928 -0.028852 2.664132 0.000000 0.000000 0.000000 -12.643554 -45.346230 -11.821843 -22.212632 19.550139 -2.632558 62.750642 -2.204556 -7.705874 -2.735371 13.603751 25.035708 -2.793882 3.472184 -2.514331 0.000000 0.000000 0.000000 -11.946469 -46.804705 -10.259540 12.114783 -1.156419 -0.195373 4.510111 12.248768 -1.395017 0.893362 -4.412437 0.942471 0.000000 0.000000 0.000000 3.129359 12.308984 -1.763220 -3.910059 -2.156819 1.808397 6.201105 -42.016704 6.562373 0.000000 0.000000 0.000000 3.585340 12.023528 -2.045040 -6.895283 -25.954966 -26.046942 -2.062081 3.949380 -8.554955 -24.341134 12.664217 -41.484732 -1.792174 -44.779943 -1.658700 0.000000 0.000000 0.000000 1.471884 12.188522 -1.934258 19.096536 -23.929460 24.641603 0.666954 2.653235 0.688417 17.149794 -24.886563 42.402077 -178.555925 71.677842 176.847518 0.000000 0.000000 0.000000 
22.157129 31.186335 17.447481 0.000000 0.000000 0.000000 -11.598580 -46.246207 -11.662648 -1.530515 7.811161 1.883379 39.241554 -13.485722 -2.710632 -36.866639 -0.428352 14.226101 -5.800898 -0.118529 3.320464 0.000000 0.000000 0.000000 -11.144943 -43.321458 -11.045831 -25.547003 19.244353 -0.418031 56.771815 -1.420569 -5.561671 -1.598679 13.274132 25.225284 -4.018085 3.228848 -3.974064 0.000000 0.000000 0.000000 -9.928986 -44.402892 -9.154038 12.343165 -3.043633 0.568584 4.469980 11.759848 -1.380848 0.961106 -4.591173 1.031800 0.000000 0.000000 0.000000 3.068248 11.867753 -1.700188 -3.967048 -2.147283 2.380190 6.899379 -42.629676 7.430414 0.000000 0.000000 0.000000 3.450806 11.611966 -2.097968 -7.174845 -28.213088 -25.303575 -2.092319 4.099658 -8.895960 -24.720958 10.218420 -41.674884 -1.833861 -47.764353 -1.680773 0.000000 0.000000 0.000000 1.485070 11.776700 -2.037138 19.166313 -23.913836 25.133339 0.887459 2.696091 0.776550 14.296873 -23.540577 41.030592 -177.994074 72.611379 176.427638 0.000000 0.000000 0.000000 
22.065191 31.371574 18.494749 0.000000 0.000000 0.000000 -9.294779 -43.801317 -10.369400 0.065329 7.816890 2.756704 37.544799 -13.684775 -4.429022 -35.513640 -3.578748 15.012068 -6.027965 -0.151059 3.953568 0.000000 0.000000 0.000000 -9.215239 -41.247987 -10.102278 -27.409414 19.117384 0.842732 47.025046 -1.638380 -3.522809 0.938491 10.838708 25.289469 -5.759079 2.384765 -4.265243 0.000000 0.000000 0.000000 -8.012268 -42.122050 -8.284038 12.543870 -4.689556 1.514729 4.451337 11.320256 -1.386931 1.046120 -4.694882 1.162664 0.000000 0.000000 0.000000 3.051512 11.497041 -1.678109 -3.977283 -2.193660 2.878597 7.574653 -43.363840 8.407375 0.000000 0.000000 0.000000 3.338191 11.267996 -2.169957 -7.350233 -30.489295 -24.386610 -2.177288 4.228807 -9.148423 -25.288214 7.972415 -41.837678 -2.077668 -50.695484 -1.809066 0.000000 0.000000 0.000000 1.530773 11.426133 -2.155667 19.235221 -23.972695 25.513929 1.181930 2.757850 0.929587 11.100010 -21.549062 39.801722 -177.622935 73.562777 176.218621 0.000000 0.000000 0.000000 
21.905809 31.522163 19.467806 0.000000 0.000000 0.000000 -7.097282 -41.421785 -9.137652 1.165211 7.688655 3.654339 36.298952 -13.558083 -5.839647 -34.872945 -6.546513 15.501179 -6.397458 -0.160327 4.481902 0.000000 0.000000 0.000000 -7.154602 -38.839977 -9.049932 -28.670286 19.023721 1.692242 36.023825 -2.948519 -1.770818 3.769111 6.288869 25.229464 -6.128219 1.197704 -3.827835 0.000000 0.000000 0.000000 -6.392806 -40.096533 -7.578026 12.714466 -6.068929 2.530587 4.480890 10.968342 -1.418667 1.122966 -4.743386 1.210297 0.000000 0.000000 0.000000 3.092123 11.233853 -1.691308 -3.936897 -2.301678 3.252476 8.207963 -44.185740 9.423276 0.000000 0.000000 0.000000 3.260803 11.032739 -2.253413 -7.407307 -32.687865 -23.369195 -2.307074 4.321938 -9.270421 -26.208532 5.833338 -42.009724 -2.466879 -53.201078 -1.990776 0.000000 0.000000 0.000000 1.607658 11.170982 -2.276605 19.291178 -24.064614 25.814637 1.562546 2.824524 1.118528 8.065760 -19.261417 39.240837 -177.391528 75.097233 176.134856 0.000000 0.000000 0.000000 
21.600733 31.608078 20.370632 0.000000 0.000000 0.000000 -5.049526 -39.053902 -7.922077 2.137459 7.007719 4.167200 35.441230 -13.284577 -6.647074 -35.223197 -9.218705 15.788022 -6.919357 -0.105353 4.841504 0.000000 0.000000 0.000000 -5.267337 -36.241400 -7.944218 -30.130437 18.866907 2.514783 26.456813 -4.665778 -0.615075 6.103329 0.282422 25.184852 -5.162309 0.136336 -3.356974 0.000000 0.000000 0.000000 -5.124504 -38.230109 -7.000961 12.897293 -7.171611 3.544696 4.527748 10.707503 -1.462341 1.125569 -4.632723 1.220686 0.000000 0.000000 0.000000 3.200364 11.072696 -1.736491 -3.830672 -2.477586 3.471458 8.725810 -45.062972 10.358194 0.000000 0.000000 0.000000 3.242513 10.909684 -2.340671 -7.356593 -34.611676 -22.372696 -2.349630 4.256507 -9.199855 -27.470647 3.631926 -42.325217 -2.878852 -55.215072 -2.130765 0.000000 0.000000 0.000000 1.716371 11.021473 -2.392967 19.275028 -24.180311 25.960629 1.942202 2.965835 1.368116 5.803181 -17.015074 39.552652 -177.386911 77.455786 176.271828 0.000000 0.000000 0.000000 
